<svg width="56" height="56" viewBox="0 0 56 56" fill="none" xmlns="http://www.w3.org/2000/svg">
<rect width="56" height="56" rx="8" fill="#1F1D2B"/>
<path d="M25.7302 18.7884C27.0002 17.7794 28.7802 17.7394 30.0892 18.6684L30.2502 18.7884L36.3392 23.6594C37.0092 24.1784 37.4202 24.9494 37.4902 25.7884L37.5002 25.9894V34.0984C37.5002 36.1884 35.8492 37.8884 33.7802 37.9984H31.7902C30.8392 37.9794 30.0702 37.2394 30.0002 36.3094L29.9902 36.1684V33.3094C29.9902 32.9984 29.7592 32.7394 29.4502 32.6884L29.3602 32.6784H26.6892C26.3702 32.6884 26.1102 32.9184 26.0702 33.2184L26.0602 33.3094V36.1594C26.0602 36.2184 26.0492 36.2884 26.0402 36.3384L26.0302 36.3594L26.0192 36.4284C25.9002 37.2794 25.2002 37.9284 24.3302 37.9894L24.2002 37.9984H22.4102C20.3202 37.9984 18.6102 36.3594 18.5002 34.2984V25.9894C18.5092 25.1384 18.8802 24.3484 19.5002 23.7984L25.7302 18.7884ZM29.3802 19.8784C28.6202 19.2684 27.5402 19.2394 26.7402 19.7684L26.5892 19.8784L20.5092 24.7794C20.1602 25.0384 19.9502 25.4284 19.9002 25.8384L19.8892 25.9984V34.0984C19.8892 35.4284 20.9292 36.5184 22.2502 36.5984H24.2002C24.4202 36.5984 24.6102 36.4494 24.6392 36.2394L24.6602 36.0594L24.6702 36.0084V33.3094C24.6702 32.2394 25.4902 31.3694 26.5402 31.2884H29.3602C30.4292 31.2884 31.2992 32.1094 31.3802 33.1594V36.1684C31.3802 36.3784 31.5302 36.5594 31.7302 36.5984H33.5892C34.9292 36.5984 36.0192 35.5694 36.0992 34.2584L36.1102 34.0984V25.9984C36.0992 25.5694 35.9202 25.1684 35.6102 24.8694L35.4802 24.7584L29.3802 19.8784Z" fill="#EA7C69"/>
</svg>
